<svg width="518" height="447" viewBox="0 0 518 447" fill="none" xmlns="http://www.w3.org/2000/svg">
<rect width="518" height="447" rx="60" fill="#41B720"/>
<path d="M365.911 57C428.035 57 478.396 106.98 478.396 168.633C478.396 230.286 428.035 280.267 365.911 280.267C363.824 280.267 361.75 280.209 359.69 280.097C359.075 280.063 358.57 280.584 358.623 281.198C358.871 284.099 359 287.034 359 290C359 345.781 314.228 391 259 391C203.772 391 159 345.781 159 290C159 287.023 159.128 284.076 159.378 281.164C159.431 280.548 158.924 280.026 158.307 280.062C156.05 280.197 153.776 280.267 151.485 280.267C89.3614 280.267 39 230.286 39 168.633C39.0002 106.98 89.3615 57 151.485 57C200.605 57 242.37 88.2462 257.703 131.803C258.026 132.72 259.37 132.72 259.693 131.803C275.027 88.2462 316.791 57 365.911 57Z" fill="#7BD316"/>
<rect x="74" y="87" width="144" height="163" rx="72" fill="#FDF8ED"/>
<g clip-path="url(#clip0_3145_5386)">
<rect x="138" y="128" width="56" height="81" rx="28" fill="black"/>
</g>
<rect x="300" y="87" width="144" height="163" rx="72" fill="#FDF8ED"/>
<rect x="324" y="128" width="56" height="81" rx="28" fill="black"/>
<path d="M306.525 292.5C311.206 292.5 315.065 296.315 314.366 300.944C312.573 312.803 307.036 323.867 298.452 332.452C287.856 343.047 273.485 349 258.5 349C243.515 349 229.144 343.047 218.549 332.452C209.964 323.867 204.427 312.804 202.634 300.944C201.935 296.316 205.794 292.5 210.475 292.5C215.156 292.5 218.859 296.337 219.855 300.911C221.454 308.261 225.132 315.064 230.534 320.466C237.951 327.883 248.011 332.05 258.5 332.05C268.989 332.05 279.049 327.883 286.466 320.466C291.868 315.064 295.546 308.261 297.146 300.911C298.141 296.337 301.844 292.5 306.525 292.5Z" fill="#1F8F1E"/>
<rect x="254" y="295" width="11" height="42" rx="5.5" fill="#1F8F1E"/>
<path d="M230.526 277.574C228.339 274.972 230.189 271 233.588 271H285.412C288.811 271 290.661 274.972 288.474 277.574L263.254 307.574C262.494 308.478 261.374 309 260.193 309H258.807C257.626 309 256.506 308.478 255.746 307.574L230.526 277.574Z" fill="#1F8F1E"/>
<defs>
<clipPath id="clip0_3145_5386">
<rect x="138" y="128" width="56" height="81" rx="28" fill="white"/>
</clipPath>
</defs>
</svg>
